Coordinates
version=1
nRows=54
nColumns=12
inDegrees=yes

Units are S.I. units (second, meters, Newtons, ...)
Angles are in degrees

endheader
time	SC_y	SC_z	SC_x	AC_y	AC_z	AC_x	GH_y	GH_z	GH_yy	EL_x	PS_y
       0.0              -41.53           38.9          74.44          49.72           5.05          10.05         -125.2          78.87         -162.2          41.86          150.9
  0.004927              -41.53           38.9          74.44          49.72          5.048          10.05         -125.1          78.86         -162.2          41.86          150.9
  0.009853              -41.54          38.89          74.43          49.72          5.046          10.05         -125.1          78.85         -162.1          41.87          150.9
   0.01478              -41.54          38.89          74.43          49.72          5.043          10.04         -125.1          78.83         -162.1          41.87          150.9
   0.01971              -41.54          38.89          74.42          49.73          5.041          10.04         -125.1          78.82         -162.0          41.88          150.9
   0.02463              -41.54          38.89          74.42          49.73          5.038          10.04         -125.0           78.8         -162.0          41.88          150.9
   0.02956              -41.55          38.89          74.41          49.73          5.035          10.04         -125.0          78.79         -161.9          41.89          150.8
   0.03449              -41.55          38.89          74.41          49.74          5.032          10.04         -125.0          78.77         -161.8           41.9          150.8
   0.03941              -41.55          38.89           74.4          49.74          5.029          10.04         -124.9          78.75         -161.7           41.9          150.8
   0.04434              -41.56          38.88           74.4          49.74          5.026          10.03         -124.9          78.73         -161.7          41.91          150.8
   0.04927              -41.56          38.88          74.39          49.75          5.022          10.03         -124.8          78.71         -161.6          41.92          150.8
   0.05419              -41.56          38.88          74.38          49.75          5.018          10.03         -124.8          78.68         -161.5          41.93          150.8
   0.05912              -41.57          38.88          74.37          49.76          5.014          10.03         -124.7          78.66         -161.4          41.93          150.8
   0.06405              -41.57          38.87          74.36          49.76          5.009          10.02         -124.7          78.63         -161.3          41.94          150.8
   0.06897              -41.58          38.87          74.36          49.77          5.004          10.02         -124.6           78.6         -161.2          41.95          150.8
    0.0739              -41.58          38.87          74.35          49.78          4.998          10.02         -124.6          78.57         -161.1          41.97          150.7
   0.07883              -41.59          38.87          74.33          49.78          4.992          10.01         -124.5          78.53         -160.9          41.98          150.7
   0.08375               -41.6          38.86          74.32          49.79          4.986          10.01         -124.4           78.5         -160.8          41.99          150.7
   0.08868               -41.6          38.86          74.31           49.8          4.979           10.0         -124.3          78.45         -160.6          42.01          150.7
   0.09361              -41.61          38.85           74.3          49.81          4.971          9.998         -124.3          78.41         -160.5          42.02          150.7
   0.09853              -41.62          38.85          74.28          49.82          4.962          9.992         -124.2          78.36         -160.3          42.04          150.6
    0.1035              -41.63          38.85          74.26          49.83          4.953          9.986         -124.1           78.3         -160.1          42.06          150.6
    0.1084              -41.64          38.84          74.24          49.84          4.943           9.98         -123.9          78.24         -159.8          42.08          150.6
    0.1133              -41.65          38.83          74.22          49.86          4.931          9.972         -123.8          78.18         -159.6           42.1          150.6
    0.1182              -41.66          38.83           74.2          49.87          4.918          9.964         -123.7           78.1         -159.3          42.13          150.5
    0.1232              -41.68          38.82          74.17          49.89          4.904          9.955         -123.5          78.02         -159.0          42.16          150.5
    0.1281              -41.69          38.81          74.14          49.91          4.888          9.945         -123.3          77.92         -158.6          42.19          150.4
     0.133              -41.71           38.8          74.11          49.93           4.87          9.933         -123.1          77.82         -158.2          42.23          150.4
    0.1379              -41.73          38.79          74.07          49.95           4.85           9.92         -122.9           77.7         -157.8          42.27          150.3
    0.1429              -41.76          38.78          74.03          49.98          4.827          9.905         -122.6          77.57         -157.3          42.32          150.3
    0.1478              -41.78          38.77          73.98          50.01            4.8          9.888         -122.3          77.41         -156.7          42.37          150.2
    0.1527              -41.81          38.75          73.93          50.05           4.77          9.869         -122.0          77.23         -156.0          42.43          150.1
    0.1577              -41.85          38.73          73.86          50.09          4.735          9.847         -121.6          77.03         -155.2           42.5          150.0
    0.1626              -41.89          38.71          73.79          50.14          4.695           9.82         -121.1          76.79         -154.3          42.59          149.9
    0.1675              -41.93          38.68           73.7          50.19          4.647           9.79         -120.5          76.52         -153.3          42.68          149.7
    0.1724              -41.99          38.66           73.6          50.26          4.591          9.754         -119.9          76.19         -152.0           42.8          149.6
    0.1774              -42.06          38.62          73.48          50.34          4.525          9.711         -119.1           75.8         -150.6          42.93          149.4
    0.1823              -42.14          38.58          73.33          50.43          4.445           9.66         -118.2          75.33         -148.8           43.1          149.2
    0.1872              -42.23          38.53          73.16          50.55          4.349          9.598         -117.1          74.77         -146.7          43.29          148.9
    0.1921              -42.35          38.47          72.94          50.69          4.231          9.523         -115.8          74.08         -144.1          43.53          148.6
    0.1971               -42.5          38.39          72.68          50.86          4.086          9.429         -114.1          73.23         -140.8          43.83          148.1
     0.202              -42.68           38.3          72.35          51.07          3.905          9.313         -112.0          72.17         -136.8           44.2          147.6
    0.2069              -42.91          38.18          71.93          51.34          3.677          9.166         -109.4          70.83         -131.8          44.67          147.0
    0.2118               -43.2          38.02           71.4          51.69          3.387           8.98         -106.1          69.14         -125.3          45.26          146.1
    0.2168              -43.57          37.83          70.72          52.13          3.015          8.741         -101.8          66.96         -117.1          46.02          145.1
    0.2217              -44.05          37.58          69.85          52.69          2.539          8.435         -96.39          64.17         -106.5           47.0          143.7
    0.2266              -44.65          37.26          68.73          53.42           1.93          8.044         -89.41          60.61         -93.05          48.24          142.0
    0.2316              -45.42          36.86          67.33          54.32          1.165          7.552         -80.65          56.13         -76.09          49.81          139.8
    0.2365              -46.35          36.37          65.63          55.43          0.232          6.953         -69.96          50.68         -55.41          51.71          137.1
    0.2414              -47.44           35.8          63.65          56.71        -0.8491          6.258         -57.57          44.35         -31.45          53.93          134.0
    0.2463              -48.61          35.18          61.51           58.1          -2.02          5.506         -44.16           37.5         -5.501          56.32          130.7
    0.2513              -49.78          34.57          59.37          59.49          -3.19          4.754         -30.75          30.65          20.45          58.71          127.4
    0.2562              -50.86           34.0          57.39          60.77         -4.271          4.059         -18.36          24.32          44.41          60.92          124.3
    0.2611               -51.8          33.51          55.68          61.88         -5.204           3.46         -7.678          18.86          65.08          62.83          121.6
